# xmcd
#
# Track frame offsets: 
#        150
#        6238
#        24393
#        43600
#        82845
#        116684
#        136785
#        154156
#        174719
#        191235
#        213690
#        237849
#
# Disc length: 3463 seconds
#
# Revision: 0
# Processed by: cddbd v1.5.2PL0 Copyright (c) Steve Scherf et al.
# Submitted via: ExactAudioCopy v1.0b1
#
DISCID=9c0d850c
DTITLE=Three Yardbirds  - In The Hall - Disc 3
DYEAR=1900
DGENRE=
TTITLE0=Introduction
TTITLE1=Everyboday Ought To Make A Change
TTITLE2=Lay Down Sally
TTITLE3=Ramblin' On My Mind_Have You Ever Loved A Woman
TTITLE4=Rita Mae
TTITLE5=Cocaine
TTITLE6=Man Smart Woman Smarter
TTITLE7=Best That I Can
TTITLE8=Road Runner
TTITLE9=Slowdown Sundown
TTITLE10=Take Me To The River
TTITLE11=Gimme Some Lovin'
EXTD=
EXTT0=
EXTT1=
EXTT2=
EXTT3=
EXTT4=
EXTT5=
EXTT6=
EXTT7=
EXTT8=
EXTT9=
EXTT10=
EXTT11=
PLAYORDER=
